<?xml version="1.0" encoding="UTF-8"?><svg id="Layer_1" xmlns="http://www.w3.org/2000/svg" viewBox="0 0 96 96"><defs><style>.cls-1{fill:#2b2b35;}.cls-1,.cls-2,.cls-3,.cls-4{stroke-width:0px;}.cls-2{fill:#d8533d;}.cls-3{fill:#cdcde8;}.cls-4{fill:#fff;}</style></defs><path class="cls-4" d="M45.88,4.88L7.38,20.92c-2.05.85-3.38,2.86-3.38,5.08v44c0,2.22,1.34,4.22,3.38,5.08l38.5,16.04c1.35.56,2.88.56,4.23,0l38.5-16.04c2.05-.85,3.38-2.86,3.38-5.08V26c0-2.22-1.34-4.22-3.38-5.08L50.12,4.88c-1.35-.56-2.88-.56-4.23,0Z"/><path class="cls-3" d="M45.46,90.94l-38.08-15.87c-2.05-.85-3.38-2.86-3.38-5.08V26.46c0-1.96,2-3.29,3.81-2.54l36.81,15.34c2.05.85,3.38,2.86,3.38,5.08v44.92c0,1.31-1.33,2.2-2.54,1.69Z"/><ellipse class="cls-1" cx="37.79" cy="48.31" rx="3.45" ry="5.22" transform="translate(-18.55 24.06) rotate(-28.68)"/><ellipse class="cls-1" cx="14.21" cy="65.93" rx="3.45" ry="5.22" transform="translate(-29.9 14.91) rotate(-28.68)"/><ellipse class="cls-2" cx="58.21" cy="48.46" rx="5.19" ry="3.47" transform="translate(-12.15 76.48) rotate(-61.49)"/><ellipse class="cls-2" cx="81.79" cy="38.93" rx="5.19" ry="3.47" transform="translate(8.54 92.22) rotate(-61.49)"/><ellipse class="cls-2" cx="58.21" cy="75.96" rx="5.19" ry="3.47" transform="translate(-36.32 90.86) rotate(-61.49)"/><ellipse class="cls-2" cx="81.79" cy="66.43" rx="5.19" ry="3.47" transform="translate(-15.63 106.59) rotate(-61.49)"/><ellipse class="cls-2" cx="24.43" cy="22.35" rx="5.56" ry="2.07"/><ellipse class="cls-2" cx="48" cy="13.58" rx="5.56" ry="2.07"/><ellipse class="cls-2" cx="48" cy="31.13" rx="5.56" ry="2.07"/><ellipse class="cls-2" cx="71.57" cy="22.35" rx="5.56" ry="2.07"/><path class="cls-2" d="M32.29,25.28c-2.17.81-2.17,2.12,0,2.92,2.17.81,5.69.81,7.86,0,2.17-.81,2.17-2.12,0-2.92s-5.69-.81-7.86,0Z"/><path class="cls-2" d="M55.86,16.51c-2.17.81-2.17,2.12,0,2.92s5.69.81,7.86,0c2.17-.81,2.17-2.12,0-2.92s-5.69-.81-7.86,0Z"/></svg>